<svg xmlns="http://www.w3.org/2000/svg" version="1.1" style="shape-rendering:geometricPrecision; text-rendering:geometricPrecision; image-rendering:optimizeQuality; fill-rule:evenodd; clip-rule:evenodd" xmlns:xlink="http://www.w3.org/1999/xlink" viewBox="44.5 29.5 83 94">
<g><path style="opacity:1" fill="#c2e6ef" d="M 83.5,29.5 C 89.6347,30.8998 95.3013,33.3998 100.5,37C 105.558,41.0571 110.892,44.7238 116.5,48C 122.081,52.7238 125.748,58.5571 127.5,65.5C 126.75,77.4851 126.25,89.4851 126,101.5C 124.93,104.242 123.43,106.742 121.5,109C 114.296,113.766 106.962,118.266 99.5,122.5C 96.8152,122.292 96.1485,121.125 97.5,119C 105.946,114.361 113.779,108.861 121,102.5C 121.438,90.7213 121.938,79.0546 122.5,67.5C 121.405,65.3796 119.739,63.8796 117.5,63C 119.18,62.6532 120.18,61.6532 120.5,60C 118.749,57.1719 116.749,54.5052 114.5,52C 106.103,45.94 97.4368,40.2733 88.5,35C 85.406,34.3482 82.406,34.6815 79.5,36C 69.8538,41.7447 61.0204,48.5781 53,56.5C 52.5464,58.5364 51.7131,60.3697 50.5,62C 51.4841,63.6565 52.4841,65.3232 53.5,67C 52.6667,67.8333 51.8333,68.6667 51,69.5C 50.3333,79.8333 50.3333,90.1667 51,100.5C 51.7065,102.081 52.5399,103.581 53.5,105C 60.996,110.249 68.6626,115.249 76.5,120C 77.8515,122.125 77.1848,123.292 74.5,123.5C 66.7239,118.901 59.0572,114.067 51.5,109C 49.6217,107.457 48.1217,105.624 47,103.5C 46.5787,89.4126 45.7454,75.4126 44.5,61.5C 47.1613,55.3337 51.1613,50.167 56.5,46C 65.2628,39.9594 74.2628,34.4594 83.5,29.5 Z M 82.5,73.5 C 87.9148,72.742 92.2482,74.5754 95.5,79C 92.5911,83.447 88.5911,85.7803 83.5,86C 74.5706,82.4066 74.2373,78.24 82.5,73.5 Z M 70.5,81.5 C 74.9669,85.7781 80.1335,89.1114 86,91.5C 91.2514,88.7895 96.0848,85.4562 100.5,81.5C 107.265,84.6125 108.598,89.1125 104.5,95C 98.9979,98.5855 93.3312,101.919 87.5,105C 85.8333,105.667 84.1667,105.667 82.5,105C 77.0598,101.891 71.8932,98.3913 67,94.5C 64.3476,89.039 65.5142,84.7056 70.5,81.5 Z"/></g>
<g><path style="opacity:1" fill="#c2e6ef" d="M 84.5,45.5 C 96.1218,51.2979 106.455,58.7979 115.5,68C 111.017,72.6558 108.683,71.8225 108.5,65.5C 102.497,62.1651 96.8305,58.3318 91.5,54C 89.4874,52.7428 87.3207,51.9095 85,51.5C 78.1499,54.6775 71.6499,58.5108 65.5,63C 64.1667,65 62.8333,67 61.5,69C 58.6784,69.6987 57.0117,68.5321 56.5,65.5C 65.1583,57.8422 74.4916,51.1755 84.5,45.5 Z"/></g>
<g><path style="opacity:1" fill="#c2e6ef" d="M 84.5,67.5 C 86.3084,67.4914 87.9751,67.9914 89.5,69C 94.3014,73.1248 99.6347,76.4581 105.5,79C 112.095,84.4989 113.095,90.8323 108.5,98C 102.33,101.919 95.9969,105.586 89.5,109C 86.5,109.667 83.5,109.667 80.5,109C 74.5851,104.791 68.4184,100.958 62,97.5C 61.1038,92.0509 61.4372,86.7175 63,81.5C 70.4876,77.1828 77.6543,72.5161 84.5,67.5 Z M 82.5,73.5 C 74.2373,78.24 74.5706,82.4066 83.5,86C 88.5911,85.7803 92.5911,83.447 95.5,79C 92.2482,74.5754 87.9148,72.742 82.5,73.5 Z M 70.5,81.5 C 65.5142,84.7056 64.3476,89.039 67,94.5C 71.8932,98.3913 77.0598,101.891 82.5,105C 84.1667,105.667 85.8333,105.667 87.5,105C 93.3312,101.919 98.9979,98.5855 104.5,95C 108.598,89.1125 107.265,84.6125 100.5,81.5C 96.0848,85.4562 91.2514,88.7895 86,91.5C 80.1335,89.1114 74.9669,85.7781 70.5,81.5 Z"/></g>
</svg>