<svg xmlns="http://www.w3.org/2000/svg" version="1.1" style="shape-rendering:geometricPrecision; text-rendering:geometricPrecision; image-rendering:optimizeQuality; fill-rule:evenodd; clip-rule:evenodd" xmlns:xlink="http://www.w3.org/1999/xlink" viewBox="42.47 67.02 172.97 109.48">
<g><path style="opacity:1" fill="#5338af" d="M 72.5,67.5 C 84.1462,65.4749 91.1462,70.1416 93.5,81.5C 93.2896,88.2206 89.9563,91.0539 83.5,90C 88.4459,85.6997 88.7793,81.033 84.5,76C 77.1756,71.8732 70.8423,73.0399 65.5,79.5C 64.6819,73.8167 67.0153,69.8167 72.5,67.5 Z"/></g>
<g><path style="opacity:1" fill="#5338af" d="M 172.5,67.5 C 177.777,66.9312 182.777,67.7645 187.5,70C 190.986,73.0609 191.819,76.5609 190,80.5C 183.932,72.4938 176.932,71.4938 169,77.5C 165.975,82.4967 166.808,86.9967 171.5,91C 165.409,91.2487 162.075,88.2487 161.5,82C 162.029,74.6543 165.695,69.8209 172.5,67.5 Z"/></g>
<g><path style="opacity:1" fill="#5338af" d="M 125.5,75.5 C 141.033,77.9004 145.533,86.2337 139,100.5C 130.972,107.452 123.305,107.119 116,99.5C 110.629,87.9304 113.795,79.9304 125.5,75.5 Z M 125.5,82.5 C 133.176,82.8306 136.343,86.8306 135,94.5C 130,99.8333 125,99.8333 120,94.5C 118.873,89.0891 120.707,85.0891 125.5,82.5 Z"/></g>
<g><path style="opacity:1" fill="#5338af" d="M 212.5,95.5 C 215.803,97.9387 216.303,100.939 214,104.5C 210.73,110.72 205.563,113.72 198.5,113.5C 195.151,112.992 191.818,112.825 188.5,113C 179.09,123.513 168.423,125.013 156.5,117.5C 154.493,119.008 152.826,120.842 151.5,123C 141.603,126.729 134.937,133.563 131.5,143.5C 130.712,154.14 130.212,164.806 130,175.5C 128.667,176.833 127.333,176.833 126,175.5C 125.903,164.775 125.237,154.109 124,143.5C 120.925,134.091 114.759,127.591 105.5,124C 103.316,121.984 101.316,119.817 99.5,117.5C 86.9194,125.178 75.5861,123.678 65.5,113C 62.6906,112.866 59.8573,113.032 57,113.5C 48.8895,112.892 44.0561,108.559 42.5,100.5C 42.3422,98.6814 43.0089,97.3481 44.5,96.5C 49.3463,106.174 56.8463,108.84 67,104.5C 74.7539,114.763 84.5872,117.263 96.5,112C 97.6853,110.647 99.0186,109.48 100.5,108.5C 103.038,111.719 105.704,114.886 108.5,118C 117.54,121.042 124.04,126.876 128,135.5C 132.421,126.579 139.255,120.246 148.5,116.5C 150.843,113.793 153.177,111.126 155.5,108.5C 163.856,115.402 172.856,116.235 182.5,111C 184.716,108.447 187.216,106.28 190,104.5C 200.512,108.516 208.012,105.516 212.5,95.5 Z"/></g>
<g><path style="opacity:1" fill="#5338af" d="M 83.5,139.5 C 86.2309,141.544 89.2309,143.211 92.5,144.5C 102.127,141.221 109.293,144.221 114,153.5C 114.837,157.295 114.504,160.961 113,164.5C 112.311,165.357 111.478,166.023 110.5,166.5C 111.089,153.225 105.255,148.559 93,152.5C 85.2233,151.257 82.0567,146.923 83.5,139.5 Z"/></g>
<g><path style="opacity:1" fill="#5338af" d="M 170.5,139.5 C 172.484,139.484 173.484,140.484 173.5,142.5C 172.216,148.329 168.549,151.663 162.5,152.5C 151.035,148.765 145.202,153.099 145,165.5C 139.192,156.609 141.026,149.442 150.5,144C 154.89,143.228 159.223,143.394 163.5,144.5C 166.43,143.547 168.763,141.88 170.5,139.5 Z"/></g>
</svg>